<svg width="275" height="91" viewBox="0 0 275 91" fill="none" xmlns="http://www.w3.org/2000/svg">
<path d="M87.7154 50.7689L84.397 51.0237C83.9815 51.0541 83.7554 50.863 83.7187 50.4504C80.5379 11.4842 27.2887 11.8209 24.4837 50.3958C24.4593 50.772 24.2576 50.96 23.8787 50.96H19.4329C19.0296 50.96 18.8309 50.7598 18.8371 50.3594C19.2037 30.7762 34.5762 15.4973 54.3854 15.5155C73.8096 15.5428 88.797 31.031 89.3654 50.3503C89.3715 50.6779 89.2157 50.8842 88.8979 50.9691C88.7207 51.0177 88.5373 50.9934 88.3479 50.8963C88.1462 50.7993 87.9354 50.7568 87.7154 50.7689Z" fill="white"/>
<path d="M82.078 67.795H88.6505C88.9316 67.795 89.0752 67.9345 89.0813 68.2136L89.1547 73.2459C89.1559 73.3064 89.1449 73.3666 89.1225 73.4228C89.1 73.4791 89.0664 73.5303 89.0237 73.5735C88.981 73.6167 88.9301 73.6511 88.8739 73.6745C88.8177 73.6979 88.7573 73.71 88.6963 73.71H82.2705C81.965 73.71 81.8122 73.8617 81.8122 74.165V76.44C81.8122 76.7433 81.6594 76.895 81.3538 76.895H76.3122C76.0066 76.895 75.8538 76.7433 75.8538 76.44V74.1741C75.8538 73.8829 75.7041 73.7373 75.4047 73.7373L32.8622 73.6099C32.5138 73.6038 32.3336 73.7767 32.3213 74.1286L32.2663 76.3945C32.2541 76.7282 32.0769 76.895 31.7347 76.895H27.0413C26.583 76.895 26.3538 76.6675 26.3538 76.2125V74.1195C26.3538 73.6281 26.1094 73.3976 25.6205 73.4279L19.6347 73.7555C19.5558 73.7605 19.4768 73.7493 19.4024 73.7228C19.328 73.6962 19.26 73.6548 19.2024 73.601C19.1448 73.5473 19.099 73.4824 19.0677 73.4103C19.0364 73.3383 19.0203 73.2606 19.0205 73.1822V68.4775C19.0205 68.0225 19.2497 67.795 19.708 67.795H26.1063C26.2279 67.795 26.3445 67.7471 26.4304 67.6617C26.5164 67.5764 26.5647 67.4607 26.5647 67.34C26.6197 60.06 25.923 51.2603 27.4263 45.0177C33.8888 18.1545 71.7655 16.5893 80.153 43.3797C82.2888 50.1774 81.3997 59.8234 81.6563 67.3855C81.6625 67.6585 81.803 67.795 82.078 67.795ZM32.6147 67.7586L75.1663 67.8314C75.2362 67.8314 75.3053 67.8177 75.3698 67.7912C75.4343 67.7647 75.4929 67.7258 75.5423 67.6768C75.5917 67.6278 75.6308 67.5696 75.6575 67.5056C75.6843 67.4415 75.698 67.3729 75.698 67.3036L75.7255 52.4706C75.7358 46.4623 73.4665 40.6962 69.4165 36.4402C65.3665 32.1842 59.8676 29.7868 54.1288 29.7752H53.7988C50.9561 29.7694 48.14 30.3501 45.5115 31.4839C42.8829 32.6178 40.4934 34.2827 38.4794 36.3835C36.4653 38.4843 34.8662 40.9799 33.7735 43.7276C32.6807 46.4754 32.1156 49.4215 32.1105 52.3978L32.083 67.2308C32.083 67.3708 32.139 67.505 32.2387 67.604C32.3384 67.703 32.4737 67.7586 32.6147 67.7586Z" fill="white"/>
<path d="M116.811 33.1786C126.683 29.211 128.755 50.0045 116.93 48.1299C109.899 47.0106 111.127 34.1341 114.226 30.0846C115.665 28.2009 118.708 27.5093 120.991 26.2444C121.222 26.1156 121.484 26.0533 121.748 26.0645C122.012 26.0758 122.267 26.1601 122.485 26.3081C124.116 27.394 123.915 28.4162 121.88 29.3748C120.202 30.1665 116.444 30.6306 116.481 32.9602C116.487 33.1907 116.597 33.2635 116.811 33.1786ZM118.272 44.7174C118.581 44.7184 118.888 44.611 119.174 44.4012C119.461 44.1913 119.722 43.8832 119.942 43.4944C120.162 43.1057 120.337 42.6438 120.457 42.1352C120.578 41.6267 120.64 41.0814 120.642 40.5305C120.644 39.9796 120.585 39.4338 120.469 38.9244C120.352 38.415 120.18 37.952 119.963 37.5617C119.745 37.1714 119.487 36.8614 119.202 36.6496C118.917 36.4378 118.611 36.3282 118.301 36.3272C117.992 36.3261 117.685 36.4335 117.399 36.6434C117.112 36.8532 116.851 37.1613 116.631 37.5501C116.411 37.9389 116.236 38.4007 116.116 38.9093C115.995 39.4179 115.933 39.9632 115.931 40.5141C115.929 41.065 115.988 41.6107 116.104 42.1201C116.221 42.6295 116.393 43.0926 116.61 43.4829C116.828 43.8732 117.086 44.1831 117.371 44.3949C117.656 44.6067 117.962 44.7163 118.272 44.7174Z" fill="white"/>
<path d="M96.8088 45.6729C92.7571 41.0046 93.6921 25.0796 104.069 27.5093C110.788 29.0836 111.09 40.4131 108.12 45.1633C105.59 49.2128 99.9163 49.2674 96.8088 45.6729ZM104.84 33.4472C104.84 33.1306 104.776 32.8171 104.654 32.5247C104.531 32.2324 104.352 31.9668 104.126 31.7433C103.9 31.5197 103.632 31.3426 103.337 31.2219C103.042 31.1012 102.726 31.0394 102.407 31.0399L102.187 31.0403C101.868 31.0408 101.552 31.1038 101.258 31.2255C100.963 31.3472 100.696 31.5252 100.471 31.7496C100.245 31.9739 100.067 32.24 99.9453 32.5328C99.8237 32.8256 99.7615 33.1393 99.762 33.456L99.7772 42.0828C99.7778 42.3995 99.8412 42.7129 99.9638 43.0053C100.086 43.2977 100.266 43.5632 100.492 43.7867C100.718 44.0103 100.986 44.1875 101.281 44.3081C101.576 44.4288 101.892 44.4906 102.211 44.4901L102.431 44.4897C102.75 44.4892 103.065 44.4263 103.36 44.3046C103.654 44.1829 103.922 44.0048 104.147 43.7805C104.372 43.5561 104.551 43.29 104.672 42.9972C104.794 42.7044 104.856 42.3907 104.856 42.074L104.84 33.4472Z" fill="white"/>
<path d="M59.0152 43.1795C60.2344 47.2927 64.5519 47.6021 65.2577 43.2614C65.2727 43.1741 65.313 43.093 65.3737 43.0281C65.4345 42.9632 65.513 42.9173 65.5996 42.896C65.6862 42.8747 65.7772 42.879 65.8614 42.9084C65.9456 42.9377 66.0193 42.9908 66.0736 43.0612C72.5177 51.5242 69.7494 61.2066 59.9686 64.9831C59.6202 65.1226 59.4827 65.0104 59.5561 64.6464C60.7538 59.059 59.1283 54.5242 54.6794 51.0419C54.5804 50.9636 54.4644 50.9102 54.3414 50.8864C54.2184 50.8627 54.0921 50.8692 53.9736 50.9054C48.1161 52.6526 46.1361 59.4139 48.0702 64.6646C48.2169 65.065 48.0886 65.1894 47.6852 65.0377C43.9086 63.6181 41.4855 60.9397 40.4161 57.0024C36.1811 41.4141 51.1594 43.2887 51.8836 33.2332C51.9691 32.0805 52.4519 31.8834 53.3319 32.6417C57.0902 35.8631 57.7044 38.7842 59.0152 43.1795Z" fill="white"/>
<path d="M138.8 42.6197C138.792 44.0991 138.193 45.5149 137.133 46.5555C136.074 47.5962 134.642 48.1764 133.152 48.1687L132.198 48.1638C131.46 48.16 130.73 48.0119 130.05 47.728C129.37 47.4441 128.753 47.03 128.233 46.5093C127.714 45.9886 127.304 45.3715 127.025 44.6932C126.746 44.015 126.605 43.2888 126.608 42.5563L126.631 38.3704C126.638 36.8909 127.238 35.4752 128.297 34.4345C129.356 33.3939 130.789 32.8136 132.279 32.8214L133.232 32.8263C133.97 32.8301 134.7 32.9782 135.381 33.2621C136.061 33.5459 136.678 33.96 137.197 34.4808C137.716 35.0015 138.127 35.6186 138.406 36.2968C138.685 36.9751 138.826 37.7012 138.822 38.4338L138.8 42.6197ZM134.435 37.1309C134.436 36.9253 134.395 36.7217 134.316 36.5317C134.238 36.3416 134.122 36.1689 133.976 36.0233C133.829 35.8777 133.656 35.7621 133.465 35.6831C133.274 35.6041 133.069 35.5633 132.862 35.5629L132.715 35.5627C132.508 35.5624 132.303 35.6025 132.111 35.6808C131.92 35.7592 131.746 35.8742 131.599 36.0192C131.453 36.1643 131.336 36.3367 131.257 36.5264C131.177 36.7162 131.136 36.9197 131.135 37.1252L131.124 43.8774C131.123 44.083 131.164 44.2866 131.242 44.4766C131.321 44.6666 131.437 44.8394 131.583 44.985C131.73 45.1306 131.903 45.2462 132.094 45.3252C132.285 45.4041 132.49 45.445 132.697 45.4453L132.844 45.4455C133.051 45.4459 133.256 45.4058 133.448 45.3274C133.639 45.2491 133.813 45.1341 133.96 44.989C134.106 44.8439 134.223 44.6716 134.302 44.4818C134.382 44.2921 134.423 44.0886 134.424 43.883L134.435 37.1309Z" fill="white"/>
<path d="M146.126 36.9005L146.245 47.7386C146.247 47.8027 146.235 47.8664 146.211 47.926C146.187 47.9855 146.152 48.0398 146.106 48.0855C146.061 48.1313 146.007 48.1676 145.948 48.1924C145.888 48.2173 145.824 48.23 145.759 48.23H142.34C142.211 48.23 142.088 48.1792 141.997 48.0887C141.906 47.9983 141.854 47.8756 141.854 47.7477V33.2423C141.854 33.1144 141.906 32.9917 141.997 32.9013C142.088 32.8108 142.211 32.76 142.34 32.76H150.077C150.206 32.76 150.329 32.8108 150.421 32.9013C150.512 32.9917 150.563 33.1144 150.563 33.2423V35.9086C150.563 36.0365 150.512 36.1592 150.421 36.2496C150.329 36.3401 150.206 36.3909 150.077 36.3909L146.603 36.4182C146.476 36.4206 146.354 36.4725 146.265 36.5627C146.176 36.6528 146.126 36.7742 146.126 36.9005Z" fill="white"/>
<path d="M156.484 34.2797C164.863 25.4345 168.758 53.2714 156.567 47.4838C156.279 47.3443 156.142 47.4322 156.154 47.7477L156.328 52.9711C156.332 53.0642 156.317 53.1571 156.283 53.2441C156.25 53.3312 156.199 53.4107 156.134 53.4779C156.069 53.545 155.991 53.5984 155.905 53.6349C155.818 53.6713 155.726 53.6901 155.632 53.69H152.396C152.09 53.69 151.938 53.5383 151.938 53.235V33.215C151.938 32.9117 152.09 32.76 152.396 32.76H155.604C155.91 32.76 156.062 32.9117 156.062 33.215V34.1159C156.062 34.5284 156.203 34.583 156.484 34.2797ZM156.292 36.2726L156.31 44.7356C156.31 44.9359 156.39 45.128 156.533 45.2697C156.676 45.4113 156.869 45.4909 157.071 45.4909H157.896C158.447 45.4885 158.974 45.1366 159.363 44.5122C159.751 43.8879 159.968 43.0421 159.967 42.1603V38.8479C159.967 38.4098 159.913 37.9759 159.807 37.5713C159.702 37.1666 159.548 36.799 159.354 36.4896C159.159 36.1803 158.929 35.9351 158.676 35.7683C158.422 35.6014 158.151 35.5161 157.877 35.5173H157.053C156.851 35.5173 156.657 35.5969 156.515 35.7385C156.372 35.8802 156.292 36.0723 156.292 36.2726Z" fill="white"/>
<path d="M171.242 41.4869C171.053 42.8095 171.334 44.0258 172.086 45.136C172.226 45.3484 172.425 45.4697 172.682 45.5C174.313 45.682 175.199 44.9783 175.34 43.3888C175.356 43.2168 175.435 43.0569 175.563 42.9407C175.69 42.8245 175.856 42.7604 176.027 42.7609L178.64 42.7882C179.074 42.7882 179.248 42.9975 179.162 43.4161C177.687 50.3958 168.089 49.7679 167.053 42.5607C165.238 29.9026 180.207 29.7115 179.162 40.5769C179.153 40.6792 179.105 40.7744 179.027 40.8435C178.949 40.9126 178.847 40.9506 178.741 40.95H171.866C171.713 40.9506 171.566 41.0053 171.451 41.104C171.336 41.2027 171.262 41.3387 171.242 41.4869ZM171.71 38.2382L174.882 38.22C174.984 38.22 175.082 38.1798 175.154 38.1081C175.226 38.0364 175.267 37.9392 175.267 37.8378L175.257 37.5011C175.255 36.9678 175.05 36.4574 174.687 36.0819C174.324 35.7065 173.834 35.4969 173.323 35.4991H173.232C172.979 35.5002 172.729 35.5534 172.495 35.6555C172.262 35.7576 172.051 35.9068 171.873 36.0944C171.695 36.282 171.554 36.5044 171.459 36.7489C171.363 36.9934 171.314 37.2552 171.316 37.5193L171.325 37.856C171.325 37.9574 171.365 38.0546 171.438 38.1263C171.51 38.198 171.608 38.2382 171.71 38.2382Z" fill="white"/>
<path d="M192.096 40.7134L193.16 41.4778C193.392 41.6416 193.548 41.86 193.627 42.133C196.093 50.1046 185.762 48.2027 181.747 48.2391C181.621 48.2391 181.5 48.1893 181.41 48.1005C181.321 48.0118 181.271 47.8914 181.271 47.7659V33.2241C181.271 32.9208 181.42 32.7691 181.72 32.7691C184.231 32.7509 189.759 32.2049 191.73 33.397C193.921 34.7256 194.333 38.402 192.096 40.04C191.785 40.2645 191.785 40.4889 192.096 40.7134ZM189.452 36.1688C189.449 35.983 189.373 35.8057 189.239 35.6759C189.105 35.5461 188.924 35.4745 188.737 35.4767L186.519 35.5036C186.426 35.5047 186.335 35.5239 186.25 35.5602C186.164 35.5964 186.087 35.649 186.022 35.7148C185.958 35.7807 185.907 35.8586 185.872 35.944C185.838 36.0295 185.821 36.1208 185.822 36.2128L185.849 38.4512C185.852 38.637 185.928 38.8143 186.062 38.9441C186.196 39.0739 186.377 39.1455 186.564 39.1433L188.782 39.1164C188.875 39.1153 188.966 39.0961 189.051 39.0599C189.137 39.0236 189.214 38.971 189.279 38.9052C189.343 38.8393 189.394 38.7614 189.429 38.676C189.463 38.5906 189.48 38.4992 189.479 38.4072L189.452 36.1688ZM185.854 42.2422V44.2078C185.854 44.3116 185.895 44.4111 185.969 44.4845C186.043 44.5579 186.143 44.5991 186.248 44.5991H188.595C188.942 44.599 189.276 44.4705 189.521 44.2419C189.767 44.0132 189.905 43.7031 189.906 43.3797V43.0703C189.906 42.9102 189.872 42.7516 189.806 42.6036C189.74 42.4556 189.643 42.3212 189.522 42.208C189.4 42.0947 189.255 42.0049 189.096 41.9436C188.937 41.8824 188.767 41.8509 188.595 41.8509H186.248C186.143 41.8509 186.043 41.8921 185.969 41.9655C185.895 42.0389 185.854 42.1384 185.854 42.2422Z" fill="white"/>
<path d="M204.261 46.4828C202.043 48.7639 199.663 48.9004 197.12 46.8923C196.9 46.715 196.746 46.4719 196.68 46.2007C195.296 40.5769 199.595 39.585 203.821 39.0754C204.108 39.039 204.264 38.8752 204.289 38.584C204.386 37.5406 204.255 36.7155 203.895 36.1088C203.718 35.8104 203.439 35.572 203.106 35.4363C202.773 35.3007 202.409 35.2768 202.078 35.3689C201.748 35.4611 201.473 35.6632 201.304 35.9389C201.134 36.2147 201.081 36.546 201.154 36.8732C201.239 37.2615 201.135 37.6376 200.842 38.0016C200.745 38.1147 200.619 38.1998 200.479 38.2478C200.338 38.2958 200.188 38.3051 200.045 38.2746L197.276 37.6649C196.928 37.5861 196.821 37.3828 196.955 37.0552C198.532 33.2272 201.386 31.9016 205.517 33.0785C210.036 34.3616 208.487 43.8893 208.67 47.8205C208.689 48.0935 208.56 48.23 208.285 48.23H205.224C204.839 48.23 204.646 48.0389 204.646 47.6567V46.6375C204.646 46.2675 204.518 46.2159 204.261 46.4828ZM204.234 41.5597C204.148 41.129 203.888 40.9531 203.455 41.0319C201.86 41.3292 200.909 42.4091 200.604 44.2715C200.565 44.5036 200.592 44.742 200.683 44.9594C200.774 45.1768 200.924 45.3645 201.117 45.5011C201.31 45.6377 201.538 45.7177 201.775 45.732C202.011 45.7463 202.247 45.6943 202.455 45.5819C204.02 44.7447 204.613 43.404 204.234 41.5597Z" fill="white"/>
<path d="M213.785 36.4H211.09C210.961 36.4 210.838 36.3492 210.747 36.2587C210.656 36.1683 210.604 36.0456 210.604 35.9177V33.2423C210.604 33.1144 210.656 32.9917 210.747 32.9013C210.838 32.8108 210.961 32.76 211.09 32.76H221.806C221.935 32.76 222.059 32.8108 222.15 32.9013C222.241 32.9917 222.292 33.1144 222.292 33.2423V35.9177C222.292 36.0456 222.241 36.1683 222.15 36.2587C222.059 36.3492 221.935 36.4 221.806 36.4H219.111C218.982 36.4 218.859 36.4508 218.768 36.5413C218.677 36.6317 218.625 36.7544 218.625 36.8823V47.7477C218.625 47.8756 218.574 47.9983 218.483 48.0887C218.392 48.1792 218.268 48.23 218.139 48.23H214.757C214.628 48.23 214.505 48.1792 214.413 48.0887C214.322 47.9983 214.271 47.8756 214.271 47.7477V36.8823C214.271 36.7544 214.22 36.6317 214.129 36.5413C214.038 36.4508 213.914 36.4 213.785 36.4Z" fill="white"/>
<path d="M227.251 41.4687L227.535 44.7265C227.548 44.873 227.607 45.0121 227.704 45.1246C227.8 45.2371 227.93 45.3174 228.076 45.3544C230.037 45.8336 231.116 45.1633 231.312 43.3433C231.33 43.185 231.405 43.0389 231.524 42.9331C231.642 42.8273 231.795 42.7692 231.953 42.77H234.639C235.012 42.77 235.165 42.952 235.097 43.316C233.282 52.8528 218.955 47.8296 223.428 36.7276C226.362 29.4658 236.399 32.76 234.96 40.5223C234.905 40.8074 234.731 40.95 234.437 40.95H227.737C227.382 40.95 227.22 41.1229 227.251 41.4687ZM227.517 38.22H230.89C230.975 38.22 231.057 38.1864 231.117 38.1267C231.177 38.067 231.211 37.9859 231.211 37.9015V37.7377C231.211 37.4424 231.161 37.15 231.065 36.8772C230.968 36.6044 230.826 36.3566 230.647 36.1479C230.469 35.9391 230.256 35.7736 230.023 35.6607C229.789 35.5478 229.539 35.4898 229.286 35.49H229.121C228.61 35.4903 228.121 35.7273 227.76 36.1488C227.399 36.5702 227.196 37.1418 227.196 37.7377V37.9015C227.196 37.9859 227.23 38.067 227.29 38.1267C227.35 38.1864 227.431 38.22 227.517 38.22Z" fill="white"/>
<path d="M242.192 39.2392L240.075 47.9843C240.058 48.0541 240.018 48.1163 239.962 48.1609C239.905 48.2055 239.835 48.2299 239.763 48.23H236.481C236.431 48.2307 236.381 48.2196 236.336 48.1976C236.291 48.1756 236.251 48.1434 236.221 48.1035C236.191 48.0637 236.17 48.0173 236.161 47.9681C236.152 47.919 236.155 47.8684 236.17 47.8205L240.606 32.9875C240.626 32.9226 240.666 32.8655 240.72 32.8246C240.774 32.7837 240.841 32.7611 240.909 32.76H244.86C244.931 32.7597 245 32.7827 245.056 32.8255C245.113 32.8683 245.153 32.9285 245.171 32.9966L249.195 47.8387C249.208 47.886 249.21 47.9356 249.2 47.9836C249.19 48.0315 249.169 48.0766 249.139 48.1154C249.109 48.1541 249.07 48.1854 249.026 48.2069C248.982 48.2283 248.933 48.2394 248.884 48.2391L245.171 48.2118C245.099 48.2117 245.029 48.1873 244.972 48.1427C244.916 48.0981 244.876 48.0359 244.86 47.9661L242.815 39.2392C242.798 39.1699 242.758 39.1083 242.702 39.0643C242.645 39.0202 242.576 38.9963 242.504 38.9963C242.432 38.9963 242.362 39.0202 242.306 39.0643C242.249 39.1083 242.209 39.1699 242.192 39.2392Z" fill="white"/>
<path d="M255.429 39.494C257.305 37.6558 258.393 35.7266 258.692 33.7064C258.802 32.9359 259.175 32.6114 259.811 32.7327C259.915 32.7509 260.022 32.76 260.132 32.76H262.396C262.701 32.76 262.854 32.9117 262.854 33.215L262.918 47.7386C262.924 48.0662 262.763 48.23 262.433 48.23H259.133C258.796 48.23 258.631 48.0632 258.637 47.7295L258.766 42.1239C258.778 41.5597 258.595 41.4899 258.216 41.9146C256.694 43.6315 255.64 45.5667 255.053 47.7204C254.962 48.0601 254.742 48.23 254.393 48.23H251.515C251.439 48.23 251.364 48.2152 251.294 48.1864C251.224 48.1576 251.16 48.1153 251.107 48.0621C251.053 48.0089 251.01 47.9457 250.981 47.8761C250.952 47.8065 250.938 47.732 250.938 47.6567V33.215C250.938 32.9117 251.09 32.76 251.396 32.76H254.751C255.154 32.76 255.35 32.9602 255.337 33.3606L255.163 39.3757C255.157 39.6305 255.246 39.6699 255.429 39.494Z" fill="white"/>
<path d="M121.193 57.7668C120.918 62.875 120.967 67.9831 121.339 73.0912C121.346 73.1703 121.335 73.2497 121.309 73.3246C121.283 73.3995 121.242 73.4682 121.187 73.5264C121.133 73.5845 121.067 73.6309 120.994 73.6625C120.921 73.6941 120.842 73.7103 120.762 73.71H118.039C117.715 73.71 117.55 73.5462 117.544 73.2186L117.535 53.3624C117.535 52.9742 117.731 52.78 118.122 52.78H123.594C123.949 52.78 124.166 52.9529 124.245 53.2987L126.793 64.7192C126.809 64.7775 126.844 64.8289 126.892 64.8657C126.94 64.9024 126.999 64.9223 127.059 64.9223C127.12 64.9223 127.179 64.9024 127.227 64.8657C127.275 64.8289 127.31 64.7775 127.325 64.7192L130.222 53.2805C130.258 53.1374 130.341 53.0105 130.458 52.9198C130.574 52.8292 130.717 52.78 130.863 52.78H136.354C136.813 52.78 137.042 53.0075 137.042 53.4625V73.1458C137.042 73.522 136.849 73.71 136.464 73.71H133.036C132.885 73.71 132.741 73.6506 132.634 73.5448C132.528 73.439 132.468 73.2955 132.468 73.1458L132.541 58.4584C132.539 58.4044 132.518 58.3528 132.481 58.313C132.444 58.2732 132.394 58.2477 132.34 58.2412C132.286 58.2346 132.231 58.2473 132.186 58.2772C132.14 58.307 132.107 58.3519 132.092 58.4038L128.673 72.3541C128.56 72.7997 128.3 73.1944 127.933 73.4745C127.566 73.7546 127.115 73.9036 126.653 73.8972C126.19 73.8909 125.743 73.7297 125.384 73.4397C125.026 73.1497 124.776 72.748 124.676 72.2995L121.513 57.7395C121.342 56.9569 121.235 56.966 121.193 57.7668Z" fill="white"/>
<path d="M57.2823 63.5726C54.4223 71.5351 43.7981 60.1055 53.3498 53.3078C53.4213 53.256 53.5061 53.2254 53.5944 53.2195C53.6827 53.2137 53.7709 53.2329 53.8487 53.2748C53.9264 53.3167 53.9906 53.3797 54.0337 53.4565C54.0769 53.5332 54.0972 53.6205 54.0923 53.7082C53.8081 58.0489 56.0173 59.1227 57.2823 62.6717C57.3923 62.969 57.3923 63.2693 57.2823 63.5726Z" fill="white"/>
<path d="M106.975 66.4118L107.58 66.6939C107.885 66.8395 108.099 67.07 108.221 67.3855C111.329 75.5573 100.411 73.6918 96.5063 73.7191C96.4425 73.7191 96.3794 73.7068 96.3204 73.6831C96.2615 73.6593 96.2079 73.6244 96.1628 73.5805C96.1177 73.5365 96.0819 73.4844 96.0575 73.427C96.0331 73.3695 96.0205 73.308 96.0205 73.2459V58.7132C96.0205 58.422 96.1672 58.2733 96.4605 58.2673C100.5 58.2066 103.177 58.1975 104.491 58.24C108.542 58.3765 109.285 63.1358 106.846 65.6747C106.547 65.9841 106.59 66.2298 106.975 66.4118ZM104.208 61.5829C104.209 61.5052 104.193 61.4282 104.164 61.3564C104.134 61.2846 104.09 61.2193 104.035 61.1643C103.979 61.1093 103.914 61.0656 103.842 61.0357C103.769 61.0059 103.692 60.9904 103.614 60.9903L101.175 60.9861C101.097 60.9859 101.02 61.0011 100.947 61.0307C100.875 61.0603 100.809 61.1037 100.754 61.1586C100.698 61.2134 100.654 61.2785 100.624 61.3502C100.594 61.4219 100.579 61.4988 100.578 61.5765L100.574 64.0153C100.574 64.093 100.589 64.1699 100.619 64.2417C100.649 64.3135 100.693 64.3788 100.748 64.4339C100.803 64.4889 100.869 64.5326 100.941 64.5624C101.013 64.5923 101.091 64.6077 101.169 64.6079L103.607 64.6121C103.686 64.6122 103.763 64.5971 103.835 64.5675C103.908 64.5379 103.974 64.4944 104.029 64.4396C104.084 64.3848 104.128 64.3196 104.158 64.2479C104.189 64.1762 104.204 64.0993 104.204 64.0217L104.208 61.5829ZM104.459 68.0124C104.459 67.9239 104.441 67.8365 104.406 67.7549C104.372 67.6734 104.321 67.5994 104.258 67.5372C104.195 67.475 104.12 67.4258 104.037 67.3924C103.955 67.359 103.867 67.3421 103.777 67.3425L101.248 67.3556C101.158 67.3561 101.07 67.3739 100.988 67.4082C100.906 67.4425 100.832 67.4925 100.769 67.5553C100.706 67.6182 100.657 67.6927 100.623 67.7746C100.589 67.8565 100.572 67.9441 100.573 68.0326L100.58 69.4158C100.58 69.5042 100.598 69.5917 100.633 69.6732C100.668 69.7547 100.718 69.8287 100.781 69.8909C100.845 69.9531 100.92 70.0023 101.002 70.0357C101.085 70.0691 101.173 70.0861 101.262 70.0856L103.792 70.0725C103.881 70.0721 103.969 70.0542 104.051 70.0199C104.133 69.9857 104.208 69.9357 104.27 69.8728C104.333 69.81 104.383 69.7354 104.416 69.6536C104.45 69.5717 104.467 69.484 104.467 69.3956L104.459 68.0124Z" fill="white"/>
<path d="M151.651 68.0906C151.643 69.5724 151.043 70.9905 149.982 72.0328C148.921 73.0752 147.486 73.6564 145.994 73.6487L145.04 73.6438C144.301 73.6399 143.57 73.4916 142.889 73.2073C142.207 72.9229 141.589 72.5081 141.069 71.9866C140.549 71.465 140.138 70.8469 139.859 70.1676C139.579 69.4882 139.438 68.7609 139.441 68.0272L139.463 63.8594C139.471 62.3776 140.072 60.9595 141.133 59.9172C142.194 58.8748 143.628 58.2936 145.121 58.3013L146.074 58.3063C146.814 58.3101 147.545 58.4584 148.226 58.7428C148.907 59.0271 149.526 59.4419 150.046 59.9634C150.566 60.485 150.977 61.1031 151.256 61.7825C151.535 62.4618 151.677 63.1891 151.673 63.9229L151.651 68.0906ZM145.567 71.2075C146.075 71.2084 146.563 70.6579 146.924 69.6773C147.285 68.6966 147.489 67.366 147.492 65.9783C147.493 65.2911 147.444 64.6106 147.349 63.9756C147.254 63.3406 147.114 62.7636 146.937 62.2774C146.76 61.7912 146.549 61.4054 146.317 61.1421C146.085 60.8787 145.836 60.7429 145.585 60.7425C145.077 60.7417 144.589 61.2921 144.228 62.2728C143.866 63.2534 143.662 64.584 143.66 65.9717C143.659 66.6589 143.707 67.3394 143.802 67.9744C143.897 68.6094 144.037 69.1865 144.215 69.6727C144.392 70.1588 144.602 70.5446 144.834 70.808C145.066 71.0713 145.315 71.2071 145.567 71.2075Z" fill="white"/>
<path d="M159.005 69.2328C159.138 69.4875 159.344 69.6972 159.598 69.8353C159.851 69.9733 160.14 70.0335 160.428 70.0081C160.716 69.9828 160.989 69.873 161.214 69.6928C161.439 69.5127 161.605 69.2702 161.691 68.9962C162.265 67.1519 163.646 66.6878 165.834 67.6039C165.97 67.66 166.082 67.7631 166.149 67.8947C166.216 68.0263 166.235 68.178 166.201 68.3228C165.412 71.6898 163.79 73.6736 160.114 73.7464C151.195 73.9193 152.002 56.2835 161.746 58.2946C164.587 58.8831 166.014 60.8699 166.027 64.2551C166.033 64.4978 165.914 64.6191 165.669 64.6191L162.717 64.6009C162.597 64.5988 162.481 64.5592 162.384 64.4874C162.287 64.4157 162.215 64.3154 162.177 64.2005L161.636 62.4351C161.526 62.065 161.275 61.877 160.884 61.8709C157.437 61.7981 158.079 67.4674 159.005 69.2328Z" fill="white"/>
<path d="M173.672 67.249C172.7 69.0083 172.443 70.9284 172.902 73.0093C172.918 73.088 172.916 73.1694 172.897 73.2474C172.878 73.3255 172.842 73.3985 172.791 73.4611C172.74 73.5236 172.676 73.5743 172.603 73.6095C172.531 73.6447 172.451 73.6634 172.37 73.6645L168.914 73.7282C168.596 73.7343 168.438 73.5796 168.438 73.2641V58.8133C168.438 58.4311 168.63 58.24 169.015 58.24H172.37C172.7 58.24 172.859 58.4038 172.847 58.7314L172.663 63.4725C172.663 63.5344 172.682 63.5949 172.718 63.6453C172.755 63.6956 172.806 63.7331 172.865 63.7524C172.925 63.7717 172.989 63.7717 173.048 63.7524C173.107 63.7332 173.159 63.6957 173.195 63.6454L176.761 58.695C176.863 58.5542 176.996 58.4395 177.151 58.3604C177.306 58.2813 177.477 58.24 177.65 58.24H180.281C180.354 58.2404 180.426 58.2611 180.488 58.2996C180.55 58.3382 180.6 58.3931 180.632 58.4583C180.664 58.5235 180.678 58.5964 180.671 58.6687C180.664 58.741 180.637 58.81 180.592 58.8679L177.293 63.0357C177.109 63.2662 177.072 63.518 177.182 63.791L181.042 73.164C181.194 73.528 181.072 73.71 180.675 73.71H177.21C176.807 73.71 176.544 73.5189 176.422 73.1367L174.533 67.3309C174.507 67.2426 174.454 67.1642 174.382 67.1058C174.31 67.0473 174.223 67.0114 174.13 67.0026C174.038 66.9938 173.945 67.0126 173.863 67.0564C173.781 67.1003 173.715 67.1674 173.672 67.249Z" fill="white"/>
<path d="M193.93 66.1388C195.039 67.0215 195.626 67.4401 195.773 68.9234C196.442 75.4026 187.33 73.7373 183.563 73.7009C183.441 73.7009 183.325 73.652 183.239 73.565C183.153 73.4779 183.104 73.3599 183.104 73.2368V58.7132C183.104 58.4159 183.251 58.2643 183.544 58.2582C186.102 58.2036 192.271 57.5666 194.114 59.2956C195.553 60.6515 195.974 64.2005 193.958 65.4836C193.64 65.6838 193.631 65.9022 193.93 66.1388ZM191.286 61.6488C191.283 61.4629 191.207 61.2856 191.073 61.1559C190.939 61.0261 190.758 60.9544 190.571 60.9567L188.353 60.9835C188.26 60.9847 188.169 61.0039 188.084 61.0401C187.998 61.0764 187.921 61.1289 187.856 61.1948C187.792 61.2607 187.741 61.3385 187.706 61.424C187.672 61.5094 187.655 61.6008 187.656 61.6928L187.683 63.9312C187.686 64.117 187.762 64.2943 187.896 64.4241C188.03 64.5539 188.211 64.6255 188.398 64.6233L190.616 64.5964C190.709 64.5953 190.8 64.5761 190.885 64.5398C190.971 64.5036 191.048 64.451 191.113 64.3852C191.177 64.3193 191.228 64.2414 191.263 64.156C191.297 64.0705 191.314 63.9792 191.313 63.8872L191.286 61.6488ZM191.665 67.9735C191.665 67.8923 191.648 67.8118 191.617 67.7368C191.586 67.6618 191.54 67.5937 191.482 67.5363C191.424 67.4789 191.355 67.4335 191.279 67.4025C191.203 67.3715 191.122 67.3557 191.04 67.3558L188.272 67.3606C188.19 67.3607 188.109 67.3768 188.034 67.4081C187.958 67.4393 187.889 67.485 187.832 67.5426C187.774 67.6001 187.728 67.6684 187.697 67.7436C187.666 67.8187 187.65 67.8992 187.65 67.9804L187.652 69.4364C187.653 69.5177 187.669 69.5981 187.7 69.6732C187.732 69.7482 187.778 69.8163 187.836 69.8737C187.894 69.931 187.963 69.9765 188.038 70.0075C188.114 70.0384 188.195 70.0543 188.277 70.0542L191.045 70.0494C191.127 70.0493 191.208 70.0331 191.284 70.0019C191.359 69.9707 191.428 69.925 191.486 69.8674C191.543 69.8098 191.589 69.7416 191.62 69.6664C191.652 69.5913 191.668 69.5108 191.667 69.4295L191.665 67.9735Z" fill="white"/>
<path d="M201.722 66.8031C201.52 68.1044 201.374 70.4067 202.923 70.9254C203.571 71.1377 204.249 70.9709 204.958 70.4249C205.202 70.2368 205.355 69.9911 205.416 69.6878C205.746 68.068 206.929 67.6615 208.964 68.4684C209.208 68.5654 209.324 68.7474 209.312 69.0144C209.083 73.3551 203.125 74.9021 200.136 72.8182C195.516 69.6059 195.956 60.0054 201.988 58.4038C206.718 57.148 209.642 61.0974 209.459 65.8749C209.447 66.2389 209.254 66.4209 208.881 66.4209L202.153 66.43C201.902 66.43 201.759 66.5543 201.722 66.8031ZM201.86 63.7H205.233C205.274 63.7 205.314 63.692 205.352 63.6764C205.39 63.6609 205.424 63.6381 205.453 63.6094C205.482 63.5806 205.505 63.5465 205.521 63.509C205.537 63.4714 205.545 63.4312 205.545 63.3906V63.2177C205.544 62.6218 205.341 62.0503 204.98 61.6288C204.619 61.2073 204.13 60.9703 203.62 60.97H203.473C203.22 60.9698 202.97 61.0278 202.736 61.1407C202.502 61.2536 202.29 61.4191 202.111 61.6279C201.933 61.8366 201.791 62.0844 201.694 62.3572C201.598 62.63 201.548 62.9224 201.548 63.2177V63.3906C201.548 63.4312 201.556 63.4714 201.572 63.509C201.587 63.5465 201.61 63.5806 201.639 63.6094C201.668 63.6381 201.703 63.6609 201.74 63.6764C201.778 63.692 201.819 63.7 201.86 63.7Z" fill="white"/>
</svg>
