<svg width="221" height="73" viewBox="0 0 221 73" fill="none" xmlns="http://www.w3.org/2000/svg">
<path d="M70.4919 40.7267L67.8252 40.9311C67.4912 40.9555 67.3095 40.8022 67.2801 40.4712C64.7238 9.21265 21.9308 9.48275 19.6766 40.4274C19.657 40.7292 19.4949 40.88 19.1904 40.88H15.6176C15.2935 40.88 15.1339 40.7194 15.1388 40.3982C15.4334 24.6886 27.7873 12.4319 43.7067 12.4465C59.3167 12.4684 71.3612 24.893 71.8179 40.3909C71.8228 40.6537 71.6976 40.8192 71.4422 40.8873C71.2998 40.9263 71.1525 40.9068 71.0002 40.8289C70.8381 40.7511 70.6687 40.717 70.4919 40.7267Z" fill="#FFC46E"/>
<path d="M65.9614 54.3851H71.2433C71.4692 54.3851 71.5847 54.497 71.5896 54.7209L71.6485 58.7578C71.6495 58.8063 71.6407 58.8546 71.6226 58.8997C71.6045 58.9448 71.5776 58.9859 71.5433 59.0206C71.509 59.0553 71.468 59.0828 71.4228 59.1016C71.3777 59.1204 71.3292 59.1301 71.2802 59.1301H66.1161C65.8706 59.1301 65.7478 59.2518 65.7478 59.4951V61.3201C65.7478 61.5634 65.625 61.6851 65.3795 61.6851H61.3278C61.0822 61.6851 60.9595 61.5634 60.9595 61.3201V59.5024C60.9595 59.2688 60.8391 59.152 60.5985 59.152L26.4098 59.0498C26.1299 59.0449 25.985 59.1836 25.9752 59.4659L25.931 61.2836C25.9211 61.5513 25.7787 61.6851 25.5037 61.6851H21.732C21.3636 61.6851 21.1795 61.5026 21.1795 61.1376V59.4586C21.1795 59.0644 20.983 58.8795 20.5901 58.9038L15.7797 59.1666C15.7163 59.1706 15.6528 59.1616 15.593 59.1403C15.5333 59.119 15.4786 59.0858 15.4323 59.0427C15.386 58.9996 15.3492 58.9475 15.3241 58.8897C15.2989 58.8319 15.286 58.7696 15.2861 58.7067V54.9326C15.2861 54.5676 15.4703 54.3851 15.8386 54.3851H20.9806C21.0783 54.3851 21.1719 54.3466 21.241 54.2782C21.3101 54.2097 21.3489 54.1169 21.3489 54.0201C21.3931 48.1801 20.8332 41.121 22.0414 36.1132C27.2349 14.5636 57.6739 13.308 64.4144 34.7992C66.1309 40.2523 65.4163 47.9903 65.6226 54.0566C65.6275 54.2756 65.7404 54.3851 65.9614 54.3851ZM26.2109 54.3559L60.407 54.4143C60.4631 54.4143 60.5186 54.4033 60.5705 54.3821C60.6223 54.3608 60.6694 54.3296 60.7091 54.2903C60.7488 54.251 60.7802 54.2043 60.8017 54.1529C60.8232 54.1015 60.8342 54.0465 60.8342 53.9909L60.8563 42.0919C60.8646 37.2721 59.0409 32.6465 55.7862 29.2323C52.5315 25.8182 48.1123 23.895 43.5005 23.8857H43.2353C40.9507 23.8811 38.6877 24.3469 36.5753 25.2564C34.4629 26.166 32.5425 27.5016 30.924 29.1869C29.3054 30.8721 28.0203 32.874 27.1421 35.0783C26.2639 37.2826 25.8098 39.646 25.8057 42.0335L25.7836 53.9325C25.7836 54.0448 25.8287 54.1525 25.9088 54.2319C25.9889 54.3113 26.0976 54.3559 26.2109 54.3559Z" fill="#FFC46E"/>
<path d="M93.8733 26.6159C101.807 23.4331 103.472 40.1136 93.9691 38.6098C88.3188 37.7119 89.306 27.3824 91.7959 24.1339C92.9525 22.6228 95.3982 22.068 97.2325 21.0533C97.4183 20.9499 97.6292 20.9 97.8414 20.909C98.0536 20.918 98.2586 20.9857 98.4333 21.1044C99.7445 21.9755 99.5825 22.7955 97.9471 23.5645C96.599 24.1996 93.5786 24.5719 93.6081 26.4407C93.613 26.6256 93.7014 26.684 93.8733 26.6159ZM95.0475 35.8723C95.2961 35.8731 95.5426 35.7869 95.7729 35.6186C96.0032 35.4503 96.2128 35.2031 96.3897 34.8912C96.5666 34.5794 96.7074 34.2088 96.8039 33.8009C96.9005 33.3929 96.951 32.9555 96.9526 32.5135C96.9541 32.0716 96.9067 31.6338 96.813 31.2252C96.7193 30.8166 96.5812 30.4451 96.4065 30.132C96.2318 29.8189 96.0239 29.5703 95.7948 29.4003C95.5657 29.2304 95.3198 29.1425 95.0712 29.1417C94.8226 29.1408 94.5761 29.227 94.3458 29.3953C94.1155 29.5636 93.9059 29.8108 93.729 30.1227C93.5521 30.4346 93.4113 30.8051 93.3148 31.2131C93.2182 31.621 93.1677 32.0585 93.1661 32.5004C93.1646 32.9423 93.212 33.3801 93.3057 33.7887C93.3994 34.1974 93.5375 34.5689 93.7122 34.882C93.8869 35.1951 94.0948 35.4437 94.3239 35.6136C94.553 35.7835 94.7989 35.8714 95.0475 35.8723Z" fill="#FFC46E"/>
<path d="M77.7995 36.6388C74.5434 32.8939 75.2948 20.1189 83.6339 22.068C89.0336 23.3309 89.2767 32.4194 86.8899 36.23C84.8567 39.4785 80.2968 39.5223 77.7995 36.6388ZM84.2539 26.8314C84.2535 26.5773 84.2026 26.3258 84.104 26.0913C84.0055 25.8568 83.8614 25.6438 83.6798 25.4644C83.4982 25.2851 83.2827 25.143 83.0457 25.0462C82.8087 24.9494 82.5547 24.8998 82.2984 24.9002L82.1216 24.9005C81.8652 24.9009 81.6115 24.9514 81.3748 25.049C81.1381 25.1467 80.9231 25.2895 80.7422 25.4695C80.5612 25.6494 80.4178 25.8629 80.3201 26.0978C80.2224 26.3327 80.1724 26.5843 80.1728 26.8384L80.185 33.7588C80.1855 34.0128 80.2364 34.2643 80.3349 34.4988C80.4334 34.7333 80.5776 34.9464 80.7592 35.1257C80.9408 35.305 81.1562 35.4471 81.3933 35.5439C81.6303 35.6407 81.8842 35.6903 82.1406 35.6899L82.3174 35.6896C82.5737 35.6892 82.8275 35.6387 83.0642 35.5411C83.3009 35.4434 83.5158 35.3006 83.6968 35.1206C83.8777 34.9407 84.0212 34.7272 84.1189 34.4923C84.2166 34.2574 84.2666 34.0058 84.2662 33.7518L84.2539 26.8314Z" fill="#FFC46E"/>
<path d="M47.4271 34.6385C48.4068 37.9381 51.8765 38.1863 52.4438 34.7042C52.4558 34.6341 52.4882 34.5691 52.537 34.517C52.5858 34.465 52.6489 34.4281 52.7185 34.4111C52.7881 34.394 52.8613 34.3975 52.9289 34.421C52.9966 34.4446 53.0558 34.4872 53.0994 34.5436C58.2782 41.3326 56.0534 49.0998 48.1932 52.1293C47.9133 52.2412 47.8028 52.1512 47.8617 51.8592C48.8243 47.377 47.5179 43.7392 43.9426 40.9457C43.8631 40.8829 43.7699 40.8401 43.671 40.821C43.5722 40.8019 43.4707 40.8071 43.3754 40.8362C38.6681 42.2378 37.0769 47.6617 38.6313 51.8738C38.7491 52.195 38.646 52.2948 38.3219 52.1731C35.2868 51.0343 33.3396 48.8857 32.4801 45.7272C29.0767 33.2223 41.1138 34.7261 41.6958 26.6596C41.7646 25.7349 42.1525 25.5768 42.8597 26.1851C45.8801 28.7693 46.3736 31.1126 47.4271 34.6385Z" fill="#FFC46E"/>
<path d="M111.545 34.1894C111.538 35.3762 111.057 36.5119 110.205 37.3467C109.354 38.1815 108.203 38.647 107.005 38.6408L106.239 38.6368C105.646 38.6337 105.06 38.515 104.513 38.2872C103.966 38.0595 103.47 37.7273 103.053 37.3096C102.636 36.8919 102.306 36.3968 102.082 35.8527C101.858 35.3086 101.744 34.7261 101.747 34.1385L101.765 30.7806C101.771 29.5938 102.253 28.458 103.104 27.6232C103.956 26.7884 105.107 26.323 106.304 26.3292L107.07 26.3331C107.663 26.3362 108.25 26.455 108.797 26.6827C109.343 26.9104 109.839 27.2426 110.257 27.6603C110.674 28.078 111.004 28.5731 111.228 29.1172C111.452 29.6613 111.566 30.2438 111.562 30.8314L111.545 34.1894ZM108.037 29.7862C108.037 29.6213 108.005 29.458 107.942 29.3056C107.878 29.1531 107.785 29.0145 107.668 28.8977C107.55 28.7809 107.411 28.6882 107.257 28.6248C107.103 28.5615 106.939 28.5287 106.772 28.5284L106.654 28.5283C106.488 28.528 106.323 28.5602 106.169 28.623C106.016 28.6859 105.876 28.7781 105.758 28.8945C105.64 29.0109 105.546 29.1491 105.482 29.3014C105.419 29.4536 105.385 29.6168 105.385 29.7817L105.376 35.1983C105.375 35.3632 105.408 35.5265 105.471 35.679C105.535 35.8314 105.628 35.97 105.745 36.0868C105.863 36.2036 106.002 36.2963 106.156 36.3597C106.309 36.423 106.474 36.4558 106.64 36.4561L106.758 36.4562C106.925 36.4565 107.09 36.4243 107.243 36.3615C107.397 36.2987 107.537 36.2064 107.655 36.09C107.773 35.9736 107.866 35.8354 107.93 35.6832C107.994 35.5309 108.027 35.3677 108.028 35.2028L108.037 29.7862Z" fill="#FFC46E"/>
<path d="M117.432 29.6015L117.528 38.2958C117.529 38.3472 117.519 38.3983 117.5 38.4461C117.481 38.4939 117.452 38.5374 117.416 38.5741C117.38 38.6108 117.336 38.64 117.288 38.6599C117.241 38.6798 117.189 38.69 117.137 38.69H114.389C114.286 38.69 114.187 38.6493 114.113 38.5767C114.04 38.5042 113.999 38.4057 113.999 38.3031V26.6669C113.999 26.5643 114.04 26.4659 114.113 26.3934C114.187 26.3208 114.286 26.28 114.389 26.28H120.607C120.71 26.28 120.81 26.3208 120.883 26.3934C120.956 26.4659 120.997 26.5643 120.997 26.6669V28.8058C120.997 28.9084 120.956 29.0069 120.883 29.0794C120.81 29.152 120.71 29.1927 120.607 29.1927L117.815 29.2146C117.713 29.2165 117.615 29.2581 117.544 29.3305C117.472 29.4029 117.432 29.5002 117.432 29.6015Z" fill="#FFC46E"/>
<path d="M125.756 27.4992C132.49 20.4036 135.62 42.7343 125.823 38.0915C125.592 37.9795 125.481 38.0501 125.491 38.3032L125.631 42.4934C125.634 42.5681 125.622 42.6426 125.595 42.7124C125.568 42.7823 125.528 42.8461 125.475 42.8999C125.423 42.9538 125.36 42.9966 125.291 43.0259C125.221 43.0551 125.147 43.0701 125.071 43.0701H122.471C122.225 43.0701 122.103 42.9484 122.103 42.7051V26.6451C122.103 26.4017 122.225 26.2801 122.471 26.2801H125.049C125.295 26.2801 125.418 26.4017 125.418 26.6451V27.3678C125.418 27.6987 125.53 27.7425 125.756 27.4992ZM125.602 29.0979L125.616 35.8869C125.616 36.0476 125.681 36.2017 125.796 36.3153C125.91 36.4289 126.066 36.4928 126.228 36.4928H126.891C127.334 36.4909 127.757 36.2086 128.07 35.7077C128.382 35.2069 128.557 34.5284 128.556 33.821V31.1638C128.555 30.8123 128.512 30.4643 128.427 30.1397C128.342 29.8151 128.218 29.5202 128.062 29.272C127.906 29.0238 127.721 28.8272 127.518 28.6933C127.314 28.5595 127.096 28.491 126.876 28.492H126.213C126.051 28.492 125.895 28.5558 125.781 28.6694C125.666 28.7831 125.602 28.9372 125.602 29.0979Z" fill="#FFC46E"/>
<path d="M137.616 33.2808C137.464 34.3417 137.69 35.3175 138.294 36.2081C138.407 36.3784 138.567 36.4757 138.773 36.5001C140.084 36.6461 140.796 36.0815 140.909 34.8065C140.922 34.6684 140.986 34.5402 141.088 34.447C141.19 34.3538 141.324 34.3023 141.462 34.3028L143.561 34.3247C143.91 34.3247 144.05 34.4926 143.981 34.8284C142.795 40.4275 135.082 39.9238 134.25 34.1422C132.791 23.9879 144.821 23.8346 143.981 32.5508C143.974 32.6328 143.935 32.7092 143.872 32.7646C143.809 32.82 143.727 32.8505 143.642 32.8501H138.117C137.994 32.8505 137.876 32.8944 137.784 32.9736C137.692 33.0528 137.632 33.1619 137.616 33.2808ZM137.992 30.6747L140.541 30.6601C140.623 30.6601 140.702 30.6278 140.76 30.5703C140.818 30.5128 140.85 30.4348 140.85 30.3535L140.843 30.0834C140.841 29.6556 140.676 29.2461 140.384 28.9449C140.093 28.6437 139.699 28.4755 139.289 28.4774H139.215C139.012 28.4782 138.811 28.5209 138.623 28.6028C138.436 28.6847 138.266 28.8044 138.123 28.9549C137.98 29.1054 137.867 29.2838 137.79 29.4799C137.713 29.676 137.674 29.8861 137.675 30.098L137.683 30.3681C137.683 30.4494 137.715 30.5274 137.773 30.5849C137.831 30.6424 137.91 30.6747 137.992 30.6747Z" fill="#FFC46E"/>
<path d="M154.376 32.6601L155.23 33.2733C155.417 33.4047 155.542 33.5799 155.606 33.7989C157.588 40.1937 149.285 38.668 146.059 38.6972C145.957 38.6972 145.86 38.6572 145.788 38.586C145.716 38.5149 145.676 38.4183 145.676 38.3176V26.6522C145.676 26.4089 145.796 26.2872 146.037 26.2872C148.055 26.2726 152.497 25.8346 154.081 26.7909C155.842 27.8567 156.173 30.8059 154.376 32.1199C154.125 32.3 154.125 32.4801 154.376 32.6601ZM152.25 29.0144C152.249 28.8654 152.187 28.7232 152.079 28.619C151.972 28.5149 151.827 28.4575 151.676 28.4593L149.894 28.4808C149.819 28.4817 149.746 28.4971 149.677 28.5262C149.609 28.5553 149.547 28.5974 149.495 28.6503C149.443 28.7031 149.402 28.7656 149.374 28.8341C149.346 28.9027 149.332 28.9759 149.333 29.0498L149.356 30.8454C149.357 30.9945 149.419 31.1367 149.527 31.2408C149.634 31.3449 149.779 31.4024 149.93 31.4006L151.712 31.379C151.787 31.3782 151.86 31.3627 151.929 31.3336C151.997 31.3046 152.059 31.2624 152.111 31.2096C152.163 31.1567 152.204 31.0943 152.232 31.0257C152.26 30.9572 152.273 30.8839 152.273 30.8101L152.25 29.0144ZM149.359 33.8865V35.4633C149.359 35.5466 149.392 35.6264 149.452 35.6853C149.511 35.7442 149.592 35.7772 149.676 35.7772H151.562C151.841 35.7772 152.109 35.6741 152.307 35.4906C152.504 35.3072 152.615 35.0584 152.615 34.799V34.5508C152.615 34.4223 152.588 34.2951 152.535 34.1764C152.482 34.0577 152.405 33.9499 152.307 33.8591C152.209 33.7682 152.093 33.6962 151.965 33.647C151.837 33.5979 151.7 33.5726 151.562 33.5726H149.676C149.592 33.5726 149.511 33.6057 149.452 33.6646C149.392 33.7234 149.359 33.8033 149.359 33.8865Z" fill="#FFC46E"/>
<path d="M164.151 37.2883C162.369 39.1182 160.456 39.2277 158.413 37.6168C158.236 37.4745 158.112 37.2796 158.059 37.062C156.947 32.5506 160.402 31.7549 163.798 31.3461C164.029 31.3169 164.154 31.1855 164.173 30.9519C164.252 30.1148 164.146 29.453 163.857 28.9663C163.715 28.7269 163.49 28.5356 163.223 28.4268C162.955 28.318 162.663 28.2989 162.397 28.3728C162.132 28.4467 161.911 28.6088 161.775 28.83C161.639 29.0512 161.596 29.317 161.654 29.5795C161.723 29.891 161.639 30.1927 161.404 30.4847C161.325 30.5754 161.224 30.6436 161.112 30.6822C160.999 30.7207 160.878 30.7282 160.763 30.7037L158.538 30.2146C158.258 30.1513 158.172 29.9883 158.28 29.7255C159.547 26.6546 161.841 25.5913 165.161 26.5354C168.792 27.5647 167.547 35.2078 167.695 38.3614C167.709 38.5804 167.606 38.6899 167.385 38.6899H164.925C164.615 38.6899 164.461 38.5366 164.461 38.23V37.4124C164.461 37.1155 164.358 37.0742 164.151 37.2883ZM164.129 33.339C164.06 32.9935 163.852 32.8523 163.503 32.9156C162.221 33.1541 161.458 34.0203 161.212 35.5144C161.181 35.7006 161.203 35.8918 161.276 36.0662C161.349 36.2406 161.469 36.3912 161.625 36.5008C161.78 36.6103 161.963 36.6745 162.153 36.686C162.343 36.6975 162.533 36.6557 162.7 36.5656C163.957 35.894 164.434 34.8185 164.129 33.339Z" fill="#FFC46E"/>
<path d="M171.805 29.2H169.639C169.536 29.2 169.437 29.1593 169.363 29.0867C169.29 29.0141 169.249 28.9157 169.249 28.8131V26.6669C169.249 26.5643 169.29 26.4659 169.363 26.3934C169.437 26.3208 169.536 26.28 169.639 26.28H178.251C178.355 26.28 178.454 26.3208 178.527 26.3934C178.6 26.4659 178.642 26.5643 178.642 26.6669V28.8131C178.642 28.9157 178.6 29.0141 178.527 29.0867C178.454 29.1593 178.355 29.2 178.251 29.2H176.085C175.982 29.2 175.882 29.2408 175.809 29.3134C175.736 29.3859 175.695 29.4843 175.695 29.5869V38.3031C175.695 38.4057 175.654 38.5042 175.581 38.5767C175.507 38.6493 175.408 38.69 175.304 38.69H172.586C172.483 38.69 172.383 38.6493 172.31 38.5767C172.237 38.5042 172.196 38.4057 172.196 38.3031V29.5869C172.196 29.4843 172.155 29.3859 172.081 29.3134C172.008 29.2408 171.909 29.2 171.805 29.2Z" fill="#FFC46E"/>
<path d="M182.627 33.2661L182.855 35.8795C182.866 35.9971 182.913 36.1087 182.991 36.1989C183.069 36.2891 183.173 36.3535 183.29 36.3832C184.866 36.7677 185.733 36.2299 185.89 34.7699C185.905 34.6429 185.966 34.5258 186.061 34.4409C186.156 34.356 186.279 34.3094 186.406 34.31H188.565C188.864 34.31 188.987 34.456 188.933 34.748C187.474 42.3984 175.96 38.3688 179.555 29.4628C181.912 23.6374 189.979 26.28 188.822 32.5069C188.778 32.7356 188.638 32.85 188.402 32.85H183.017C182.733 32.85 182.602 32.9887 182.627 33.2661ZM182.841 30.66H185.552C185.62 30.66 185.686 30.6331 185.734 30.5852C185.782 30.5373 185.809 30.4723 185.809 30.4045V30.2731C185.81 30.0362 185.77 29.8017 185.692 29.5829C185.614 29.364 185.5 29.1652 185.357 28.9978C185.213 28.8303 185.042 28.6975 184.855 28.607C184.667 28.5164 184.466 28.4699 184.262 28.47H184.13C183.72 28.4703 183.326 28.6604 183.036 28.9985C182.746 29.3366 182.583 29.7951 182.583 30.2731V30.4045C182.583 30.4723 182.61 30.5373 182.658 30.5852C182.707 30.6331 182.772 30.66 182.841 30.66Z" fill="#FFC46E"/>
<path d="M194.635 31.4776L192.933 38.4929C192.92 38.5489 192.888 38.5989 192.842 38.6346C192.797 38.6704 192.741 38.6899 192.683 38.69H190.045C190.005 38.6906 189.965 38.6817 189.929 38.664C189.892 38.6464 189.861 38.6206 189.836 38.5886C189.812 38.5566 189.795 38.5194 189.788 38.4799C189.781 38.4405 189.783 38.3999 189.795 38.3615L193.36 26.4625C193.376 26.4104 193.408 26.3647 193.452 26.3318C193.496 26.299 193.549 26.2809 193.603 26.28H196.779C196.836 26.2797 196.891 26.2982 196.936 26.3326C196.982 26.3669 197.014 26.4152 197.029 26.4698L200.263 38.3761C200.273 38.4141 200.274 38.4538 200.267 38.4923C200.259 38.5308 200.242 38.567 200.218 38.5981C200.194 38.6291 200.162 38.6542 200.127 38.6715C200.091 38.6887 200.052 38.6975 200.012 38.6973L197.029 38.6754C196.971 38.6753 196.915 38.6558 196.869 38.62C196.824 38.5842 196.792 38.5343 196.779 38.4783L195.136 31.4776C195.122 31.4221 195.09 31.3726 195.045 31.3373C194.999 31.302 194.943 31.2828 194.885 31.2828C194.828 31.2828 194.771 31.302 194.726 31.3373C194.681 31.3726 194.649 31.4221 194.635 31.4776Z" fill="#FFC46E"/>
<path d="M205.272 31.682C206.779 30.2074 207.654 28.6598 207.894 27.0392C207.983 26.4212 208.282 26.1608 208.793 26.2581C208.877 26.2727 208.962 26.28 209.051 26.28H210.87C211.116 26.28 211.239 26.4017 211.239 26.645L211.29 38.2958C211.295 38.5586 211.165 38.69 210.9 38.69H208.248C207.978 38.69 207.845 38.5562 207.85 38.2885L207.953 33.7917C207.963 33.3391 207.816 33.2832 207.511 33.6238C206.288 35.0011 205.441 36.5536 204.97 38.2812C204.896 38.5538 204.719 38.69 204.439 38.69H202.126C202.065 38.69 202.005 38.6781 201.949 38.655C201.892 38.6319 201.841 38.598 201.798 38.5553C201.755 38.5126 201.721 38.4619 201.697 38.4061C201.674 38.3503 201.662 38.2905 201.662 38.2301V26.645C201.662 26.4017 201.785 26.28 202.03 26.28H204.727C205.051 26.28 205.208 26.4406 205.198 26.7618L205.058 31.5871C205.053 31.7915 205.124 31.8232 205.272 31.682Z" fill="#FFC46E"/>
<path d="M97.3944 46.3405C97.1734 50.4382 97.2127 54.536 97.5122 58.6337C97.5173 58.6971 97.5091 58.7608 97.4881 58.8209C97.467 58.881 97.4337 58.9361 97.3901 58.9827C97.3464 59.0294 97.2935 59.0666 97.2347 59.0919C97.1758 59.1173 97.1123 59.1303 97.0481 59.1301H94.8602C94.6 59.1301 94.4674 58.9987 94.4624 58.7359L94.4551 42.8073C94.4551 42.4958 94.6122 42.3401 94.9265 42.3401H99.3244C99.6093 42.3401 99.7836 42.4788 99.8475 42.7562L101.895 51.9177C101.908 51.9644 101.936 52.0057 101.974 52.0352C102.013 52.0646 102.06 52.0806 102.109 52.0806C102.158 52.0806 102.205 52.0646 102.244 52.0352C102.282 52.0057 102.31 51.9644 102.323 51.9177L104.651 42.7416C104.68 42.6268 104.747 42.5249 104.84 42.4522C104.933 42.3795 105.048 42.3401 105.166 42.3401H109.579C109.947 42.3401 110.131 42.5226 110.131 42.8876V58.6775C110.131 58.9792 109.977 59.1301 109.667 59.1301H106.912C106.791 59.1301 106.675 59.0824 106.589 58.9975C106.503 58.9126 106.455 58.7975 106.455 58.6775L106.514 46.8953C106.513 46.8519 106.495 46.8106 106.466 46.7786C106.436 46.7467 106.396 46.7263 106.353 46.721C106.309 46.7157 106.265 46.726 106.229 46.7499C106.192 46.7738 106.165 46.8098 106.153 46.8515L103.406 58.0424C103.315 58.3998 103.106 58.7165 102.811 58.9412C102.516 59.1659 102.154 59.2853 101.782 59.2803C101.41 59.2752 101.051 59.1459 100.763 58.9132C100.475 58.6806 100.274 58.3583 100.194 57.9986L97.6522 46.3186C97.5147 45.6908 97.4288 45.6981 97.3944 46.3405Z" fill="#FFC46E"/>
<path d="M46.0346 50.9977C43.7362 57.3852 35.1982 48.2164 42.8743 42.7633C42.9317 42.7217 42.9999 42.6972 43.0709 42.6925C43.1419 42.6878 43.2127 42.7032 43.2752 42.7368C43.3377 42.7704 43.3893 42.821 43.4239 42.8825C43.4586 42.9441 43.4749 43.0141 43.471 43.0845C43.2426 46.5666 45.018 47.428 46.0346 50.275C46.123 50.5135 46.123 50.7544 46.0346 50.9977Z" fill="#FFC46E"/>
<path d="M85.9692 53.2754L86.4554 53.5017C86.7009 53.6185 86.8728 53.8035 86.971 54.0565C89.4683 60.6119 80.6946 59.1154 77.5564 59.1373C77.5052 59.1373 77.4544 59.1275 77.407 59.1084C77.3597 59.0893 77.3166 59.0614 77.2804 59.0261C77.2441 58.9909 77.2154 58.949 77.1957 58.903C77.1761 58.8569 77.166 58.8076 77.166 58.7577V47.0996C77.166 46.866 77.2839 46.7468 77.5196 46.7419C80.7659 46.6932 82.9169 46.6859 83.9728 46.72C87.2289 46.8295 87.8256 50.6474 85.866 52.6841C85.6254 52.9323 85.6598 53.1294 85.9692 53.2754ZM83.7461 49.4017C83.7463 49.3394 83.734 49.2776 83.71 49.22C83.6861 49.1624 83.6509 49.11 83.6065 49.0659C83.5621 49.0218 83.5094 48.9867 83.4514 48.9627C83.3933 48.9388 83.3311 48.9264 83.2682 48.9263L81.3087 48.9229C81.2458 48.9228 81.1835 48.935 81.1254 48.9587C81.0672 48.9825 81.0144 49.0173 80.9698 49.0613C80.9253 49.1053 80.8899 49.1575 80.8657 49.215C80.8416 49.2726 80.8291 49.3342 80.8289 49.3966L80.8256 51.353C80.8254 51.4153 80.8377 51.477 80.8617 51.5346C80.8856 51.5922 80.9208 51.6446 80.9652 51.6887C81.0096 51.7329 81.0623 51.7679 81.1203 51.7919C81.1784 51.8158 81.2406 51.8282 81.3035 51.8283L83.263 51.8317C83.3259 51.8318 83.3882 51.8196 83.4463 51.7959C83.5045 51.7722 83.5573 51.7373 83.6019 51.6933C83.6464 51.6494 83.6818 51.5971 83.706 51.5396C83.7301 51.4821 83.7426 51.4204 83.7428 51.3581L83.7461 49.4017ZM83.9478 54.5594C83.9474 54.4885 83.9329 54.4183 83.9052 54.3529C83.8774 54.2875 83.837 54.2282 83.7861 54.1783C83.7352 54.1284 83.6749 54.0889 83.6086 54.0621C83.5423 54.0353 83.4713 54.0217 83.3998 54.0221L81.3666 54.0326C81.295 54.0329 81.2242 54.0473 81.1582 54.0748C81.0922 54.1022 81.0323 54.1424 80.982 54.1928C80.9316 54.2432 80.8918 54.303 80.8647 54.3687C80.8377 54.4343 80.8239 54.5047 80.8243 54.5756L80.8302 55.6852C80.8306 55.7562 80.845 55.8263 80.8728 55.8917C80.9005 55.9571 80.941 56.0165 80.9919 56.0664C81.0428 56.1163 81.1031 56.1557 81.1694 56.1825C81.2357 56.2093 81.3066 56.2229 81.3782 56.2226L83.4113 56.2121C83.4829 56.2117 83.5537 56.1974 83.6197 56.1699C83.6857 56.1424 83.7456 56.1023 83.796 56.0519C83.8464 56.0014 83.8862 55.9417 83.9133 55.876C83.9403 55.8103 83.954 55.74 83.9537 55.669L83.9478 54.5594Z" fill="#FFC46E"/>
<path d="M121.873 54.622C121.867 55.8107 121.384 56.9483 120.531 57.7845C119.679 58.6207 118.526 59.0869 117.326 59.0807L116.56 59.0768C115.966 59.0737 115.378 58.9547 114.831 58.7266C114.283 58.4985 113.786 58.1658 113.369 57.7474C112.951 57.329 112.62 56.8331 112.396 56.2882C112.171 55.7432 112.057 55.1597 112.061 54.5711L112.078 51.2278C112.085 50.0391 112.567 48.9015 113.42 48.0653C114.272 47.2292 115.425 46.7629 116.625 46.7691L117.391 46.773C117.985 46.7761 118.573 46.8951 119.12 47.1232C119.668 47.3513 120.165 47.684 120.583 48.1024C121 48.5208 121.331 49.0167 121.555 49.5616C121.78 50.1066 121.894 50.6901 121.891 51.2787L121.873 54.622ZM116.983 57.1224C117.391 57.1231 117.784 56.6815 118.074 55.8948C118.364 55.1081 118.528 54.0408 118.53 52.9275C118.531 52.3763 118.492 51.8304 118.416 51.321C118.339 50.8116 118.226 50.3487 118.084 49.9587C117.942 49.5686 117.773 49.2592 117.586 49.0479C117.4 48.8367 117.2 48.7277 116.998 48.7274C116.589 48.7267 116.197 49.1683 115.907 49.955C115.617 50.7417 115.453 51.809 115.451 52.9223C115.45 53.4735 115.489 54.0194 115.565 54.5288C115.642 55.0382 115.754 55.5011 115.896 55.8911C116.039 56.2812 116.208 56.5906 116.394 56.8019C116.581 57.0132 116.781 57.1221 116.983 57.1224Z" fill="#FFC46E"/>
<path d="M127.782 55.5383C127.889 55.7426 128.055 55.9109 128.258 56.0216C128.462 56.1324 128.694 56.1806 128.926 56.1603C129.157 56.1399 129.377 56.0519 129.558 55.9074C129.738 55.7628 129.872 55.5683 129.941 55.3485C130.402 53.869 131.512 53.4967 133.27 54.2316C133.38 54.2766 133.47 54.3593 133.523 54.4649C133.577 54.5705 133.592 54.6922 133.565 54.8083C132.931 57.5093 131.627 59.1007 128.673 59.1591C121.506 59.2978 122.154 45.1504 129.985 46.7637C132.268 47.2358 133.415 48.8296 133.425 51.5452C133.43 51.7399 133.334 51.8372 133.138 51.8372L130.766 51.8226C130.669 51.821 130.576 51.7892 130.498 51.7316C130.42 51.674 130.361 51.5936 130.331 51.5014L129.896 50.0852C129.808 49.7883 129.607 49.6375 129.292 49.6326C126.522 49.5742 127.038 54.1221 127.782 55.5383Z" fill="#FFC46E"/>
<path d="M139.569 53.947C138.788 55.3583 138.582 56.8986 138.95 58.5679C138.963 58.631 138.962 58.6963 138.946 58.7589C138.931 58.8216 138.902 58.8801 138.861 58.9303C138.82 58.9805 138.769 59.0211 138.71 59.0494C138.652 59.0776 138.588 59.0926 138.523 59.0935L135.745 59.1446C135.49 59.1494 135.362 59.0253 135.362 58.7723V47.1799C135.362 46.8733 135.517 46.72 135.826 46.72H138.523C138.788 46.72 138.915 46.8514 138.906 47.1142L138.758 50.9175C138.758 50.9671 138.773 51.0157 138.802 51.0561C138.832 51.0964 138.873 51.1265 138.921 51.142C138.968 51.1575 139.02 51.1575 139.067 51.142C139.115 51.1266 139.156 51.0965 139.186 51.0562L142.051 47.085C142.133 46.972 142.24 46.88 142.365 46.8166C142.489 46.7531 142.626 46.72 142.766 46.72H144.88C144.939 46.7203 144.996 46.7369 145.046 46.7678C145.096 46.7987 145.136 46.8428 145.162 46.8951C145.188 46.9474 145.199 47.0058 145.194 47.0639C145.188 47.1219 145.166 47.1772 145.131 47.2237L142.479 50.5671C142.331 50.752 142.302 50.954 142.39 51.173L145.491 58.692C145.614 58.984 145.516 59.13 145.197 59.13H142.412C142.088 59.13 141.877 58.9767 141.779 58.6701L140.261 54.0127C140.24 53.9419 140.197 53.879 140.14 53.8321C140.082 53.7852 140.011 53.7564 139.937 53.7493C139.863 53.7423 139.788 53.7573 139.723 53.7925C139.657 53.8277 139.603 53.8815 139.569 53.947Z" fill="#FFC46E"/>
<path d="M155.849 53.0564C156.741 53.7645 157.212 54.1003 157.33 55.2902C157.868 60.4878 150.545 59.1519 147.518 59.1227C147.42 59.1227 147.326 59.0835 147.257 59.0137C147.188 58.9439 147.149 58.8492 147.149 58.7504V47.0996C147.149 46.8612 147.267 46.7395 147.503 46.7346C149.558 46.6908 154.516 46.1798 155.997 47.5668C157.153 48.6545 157.492 51.5015 155.872 52.5308C155.616 52.6914 155.609 52.8666 155.849 53.0564ZM153.724 49.4545C153.722 49.3055 153.661 49.1633 153.553 49.0591C153.445 48.955 153.3 48.8976 153.15 48.8994L151.367 48.9209C151.293 48.9218 151.219 48.9372 151.151 48.9663C151.082 48.9954 151.02 49.0376 150.968 49.0904C150.916 49.1432 150.875 49.2057 150.848 49.2742C150.82 49.3428 150.806 49.4161 150.807 49.4899L150.829 51.2855C150.831 51.4346 150.893 51.5768 151 51.6809C151.108 51.785 151.253 51.8425 151.403 51.8407L153.186 51.8192C153.26 51.8183 153.334 51.8028 153.402 51.7738C153.471 51.7447 153.533 51.7025 153.585 51.6497C153.637 51.5968 153.678 51.5344 153.706 51.4658C153.733 51.3973 153.747 51.324 153.746 51.2502L153.724 49.4545ZM154.029 54.5283C154.029 54.4631 154.016 54.3985 153.99 54.3384C153.965 54.2782 153.928 54.2235 153.882 54.1775C153.835 54.1315 153.78 54.095 153.719 54.0702C153.658 54.0453 153.593 54.0326 153.527 54.0327L151.302 54.0365C151.237 54.0366 151.171 54.0496 151.111 54.0747C151.05 54.0997 150.995 54.1364 150.948 54.1825C150.902 54.2287 150.865 54.2835 150.84 54.3438C150.815 54.404 150.802 54.4686 150.802 54.5338L150.804 55.7018C150.804 55.767 150.818 55.8315 150.843 55.8917C150.868 55.9519 150.905 56.0065 150.952 56.0526C150.998 56.0986 151.054 56.135 151.114 56.1599C151.175 56.1847 151.24 56.1974 151.306 56.1973L153.531 56.1935C153.597 56.1934 153.662 56.1805 153.722 56.1554C153.783 56.1304 153.838 56.0937 153.885 56.0475C153.931 56.0013 153.968 55.9466 153.993 55.8863C154.018 55.826 154.031 55.7615 154.031 55.6963L154.029 54.5283Z" fill="#FFC46E"/>
<path d="M162.111 53.5892C161.949 54.6331 161.831 56.48 163.076 56.8961C163.596 57.0665 164.141 56.9326 164.711 56.4946C164.908 56.3438 165.03 56.1467 165.079 55.9033C165.345 54.6039 166.295 54.2779 167.93 54.9251C168.127 55.003 168.22 55.149 168.21 55.3631C168.026 58.8452 163.238 60.0862 160.836 58.4145C157.123 55.8376 157.477 48.1361 162.324 46.8513C166.125 45.8439 168.475 49.0121 168.328 52.8446C168.318 53.1366 168.164 53.2826 167.864 53.2826L162.457 53.2899C162.256 53.2899 162.14 53.3897 162.111 53.5892ZM162.221 51.0999H164.932C164.965 51.0999 164.998 51.0935 165.028 51.081C165.058 51.0686 165.086 51.0503 165.109 51.0272C165.132 51.0042 165.151 50.9768 165.163 50.9467C165.176 50.9166 165.183 50.8843 165.183 50.8517V50.713C165.182 50.235 165.019 49.7765 164.729 49.4384C164.439 49.1003 164.046 48.9102 163.636 48.9099H163.518C163.314 48.9098 163.113 48.9563 162.925 49.0469C162.738 49.1374 162.567 49.2702 162.423 49.4377C162.28 49.6051 162.166 49.8039 162.088 50.0228C162.01 50.2416 161.971 50.4762 161.971 50.713V50.8517C161.971 50.8843 161.977 50.9166 161.99 50.9467C162.002 50.9768 162.021 51.0042 162.044 51.0272C162.067 51.0503 162.095 51.0686 162.125 51.081C162.156 51.0935 162.188 51.0999 162.221 51.0999Z" fill="#FFC46E"/>
</svg>
