<svg width="42" height="42" viewBox="0 0 42 42" fill="none" xmlns="http://www.w3.org/2000/svg">
<rect x="0.65332" y="0.716553" width="41.0076" height="40.6029" rx="9" fill="#4A4A4A"/>
<path opacity="0.4" d="M33.7734 12.3502C33.643 12.2623 33.4843 12.2039 33.3145 12.1812C33.1447 12.1586 32.9701 12.1725 32.8097 12.2216L5.41882 20.5863C5.08566 20.688 4.80378 20.8713 4.61553 21.1087C4.42727 21.3461 4.3428 21.6248 4.37479 21.9028C4.40678 22.1809 4.55351 22.4433 4.79294 22.6508C5.03238 22.8582 5.35159 22.9994 5.70265 23.0532L13.0173 24.1743V30.5225C13.0175 30.8168 13.1303 31.1043 13.3414 31.3482C13.5525 31.5921 13.8521 31.7813 14.2019 31.8913C14.5517 32.0014 14.9356 32.0274 15.3044 31.9659C15.6733 31.9045 16.0102 31.7585 16.2719 31.5466L19.8725 28.6325L25.4923 32.4768C25.8354 32.7137 26.2776 32.8446 26.7358 32.8449C26.9358 32.8446 27.1346 32.82 27.325 32.7721C27.6372 32.6951 27.9181 32.5554 28.1396 32.3672C28.3611 32.179 28.5155 31.9488 28.5874 31.6995L34.0775 13.0748C34.1161 12.9439 34.1082 12.8072 34.0546 12.6795C34.001 12.5518 33.9038 12.438 33.7734 12.3502ZM5.99594 21.8076C5.99076 21.7967 5.99076 21.7848 5.99594 21.7739C6.00204 21.7702 6.00889 21.7673 6.01621 21.7654L27.6021 15.1715L13.6404 22.9762L6.01621 21.8118L5.99594 21.8076ZM15.1042 30.667C15.0669 30.6972 15.019 30.718 14.9665 30.7268C14.914 30.7356 14.8594 30.7321 14.8095 30.7166C14.7596 30.7011 14.7168 30.6743 14.6865 30.6398C14.6562 30.6052 14.6397 30.5644 14.6392 30.5225V25.0497L18.652 27.7919L15.1042 30.667ZM27.0074 31.4137C26.9975 31.4494 26.9754 31.4823 26.9435 31.509C26.9117 31.5357 26.8712 31.5553 26.8263 31.5656C26.7806 31.5781 26.7313 31.5808 26.6838 31.5734C26.6362 31.566 26.5921 31.5487 26.556 31.5234L15.1312 23.7029L32.0745 14.2276L27.0074 31.4137Z" fill="black"/>
</svg>
